<?xml version="1.0" encoding="iso-8859-1"?>
<!-- Uploaded to: SVG Repo, www.svgrepo.com, Generator: SVG Repo Mixer Tools -->
<!DOCTYPE svg PUBLIC "-//W3C//DTD SVG 1.1//EN" "http://www.w3.org/Graphics/SVG/1.1/DTD/svg11.dtd">
<svg fill="#000000" height="800px" width="800px" version="1.1" id="Capa_1" xmlns="http://www.w3.org/2000/svg" xmlns:xlink="http://www.w3.org/1999/xlink" 
	 viewBox="0 0 464.48 464.48" xml:space="preserve">
<g>
	<path d="M424.735,75.33c0-8.654-3.711-16.732-9.845-22.4c0.305-0.281,0.604-0.567,0.896-0.86
		c5.688-5.672,8.949-13.534,8.949-21.571c0-8.028-3.259-15.89-8.939-21.571C410.122,3.255,402.262,0,394.235,0
		c-8.021,0-15.879,3.251-21.579,8.937c-0.55,0.551-1.078,1.125-1.585,1.722C365.38,4.041,356.975,0,347.945,0
		c-9.038,0-17.448,4.047-23.14,10.676C319.113,4.047,310.703,0,301.665,0s-17.448,4.047-23.141,10.676
		C272.833,4.047,264.422,0,255.384,0s-17.449,4.048-23.141,10.677C226.55,4.048,218.136,0,209.094,0
		c-9.038,0-17.447,4.049-23.137,10.679C180.265,4.049,171.853,0,162.814,0c-9.037,0-17.448,4.048-23.14,10.675
		C133.983,4.048,125.572,0,116.535,0c-9.029,0-17.434,4.041-23.125,10.658c-0.51-0.599-1.042-1.177-1.595-1.73
		C86.14,3.254,78.278,0,70.245,0c-8.028,0-15.888,3.255-21.562,8.929c-5.681,5.68-8.938,13.543-8.938,21.571
		c0,8.029,3.258,15.891,8.947,21.58c0.292,0.29,0.589,0.575,0.894,0.854c-6.132,5.667-9.841,13.744-9.841,22.396
		c0,8.662,3.717,16.747,9.861,22.415c-6.145,5.668-9.861,13.753-9.861,22.415s3.717,16.747,9.861,22.415
		c-6.145,5.668-9.861,13.753-9.861,22.415c0,8.662,3.717,16.747,9.861,22.415c-6.145,5.668-9.861,13.753-9.861,22.415
		c0,8.664,3.717,16.75,9.86,22.417c-6.144,5.669-9.86,13.757-9.86,22.423c0,8.661,3.717,16.746,9.859,22.414
		c-6.144,5.667-9.859,13.752-9.859,22.416c0,8.661,3.717,16.746,9.859,22.414c-6.144,5.667-9.859,13.752-9.859,22.416
		c0,8.662,3.717,16.747,9.86,22.415c-6.144,5.668-9.86,13.753-9.86,22.415c0,8.652,3.709,16.729,9.84,22.396
		c-0.307,0.282-0.607,0.569-0.901,0.863c-5.681,5.681-8.938,13.543-8.938,21.571c0,8.029,3.258,15.891,8.938,21.571
		c5.674,5.674,13.533,8.929,21.562,8.929c8.033,0,15.896-3.254,21.572-8.93c0.552-0.552,1.083-1.129,1.593-1.729
		c5.691,6.618,14.096,10.658,23.125,10.658c9.037,0,17.448-4.047,23.14-10.675c5.691,6.628,14.103,10.675,23.14,10.675
		c9.038,0,17.448-4.047,23.14-10.676c5.692,6.629,14.103,10.676,23.141,10.676c9.042,0,17.456-4.048,23.149-10.676
		c5.691,6.628,14.103,10.676,23.141,10.676s17.448-4.047,23.14-10.676c5.692,6.629,14.103,10.676,23.141,10.676
		s17.449-4.048,23.141-10.676c5.693,6.628,14.107,10.676,23.149,10.676c9.029,0,17.433-4.04,23.124-10.657
		c0.507,0.596,1.035,1.169,1.585,1.718c5.68,5.681,13.543,8.939,21.571,8.939c8.036,0,15.898-3.262,21.551-8.929
		c5.688-5.672,8.949-13.534,8.949-21.571c0-8.027-3.259-15.89-8.938-21.57c-0.294-0.294-0.595-0.582-0.902-0.864
		c6.132-5.667,9.841-13.744,9.841-22.396c0-8.662-3.717-16.747-9.861-22.415c6.145-5.668,9.861-13.753,9.861-22.415
		s-3.717-16.747-9.861-22.415c6.145-5.668,9.861-13.753,9.861-22.415c0-8.666-3.718-16.752-9.864-22.42
		c6.146-5.668,9.864-13.755,9.864-22.42c0-8.661-3.718-16.745-9.863-22.411c6.146-5.667,9.863-13.755,9.863-22.419
		c0-8.662-3.717-16.747-9.861-22.415c6.145-5.668,9.861-13.753,9.861-22.415c0-8.661-3.717-16.746-9.86-22.414
		c6.144-5.668,9.86-13.754,9.86-22.416c0-8.662-3.717-16.747-9.861-22.415C421.018,92.077,424.735,83.992,424.735,75.33z
		 M397.813,65.479c4.141,1.507,6.922,5.465,6.922,9.851s-2.781,8.344-6.922,9.851c-3.95,1.438-6.58,5.193-6.58,9.397v6.335
		c0,4.204,2.63,7.959,6.58,9.397c4.141,1.507,6.922,5.465,6.922,9.851c0,4.387-2.781,8.346-6.92,9.851
		c-3.951,1.437-6.582,5.193-6.582,9.398v6.333c0,4.204,2.63,7.959,6.58,9.397c4.141,1.507,6.922,5.465,6.922,9.851
		s-2.781,8.344-6.922,9.851c-3.95,1.438-6.58,5.193-6.58,9.397v6.335c0,4.204,2.63,7.959,6.58,9.397
		c4.141,1.507,6.922,5.465,6.922,9.851c0,4.387-2.781,8.346-6.92,9.851c-3.951,1.438-6.582,5.193-6.582,9.398v6.342
		c0,4.206,2.631,7.961,6.583,9.398c4.139,1.504,6.919,5.458,6.919,9.84c0,4.387-2.781,8.346-6.92,9.851
		c-3.951,1.438-6.582,5.193-6.582,9.398v6.343c0,4.205,2.631,7.961,6.583,9.398c4.139,1.505,6.919,5.463,6.919,9.851
		c0,4.385-2.781,8.344-6.922,9.851c-3.95,1.438-6.58,5.193-6.58,9.397v6.335c0,4.204,2.63,7.959,6.58,9.397
		c4.141,1.507,6.922,5.465,6.922,9.851s-2.781,8.344-6.922,9.851c-3.95,1.438-6.58,5.193-6.58,9.397v6.334
		c0,4.204,2.63,7.959,6.58,9.397c4.141,1.507,6.922,5.465,6.922,9.851c0,4.386-2.781,8.344-6.922,9.851
		c-3.95,1.438-6.58,5.193-6.58,9.397v6.351c0,4.202,2.626,7.955,6.573,9.395c1.482,0.541,2.813,1.373,3.847,2.408
		c1.959,1.958,3.082,4.666,3.082,7.429c0,2.762-1.12,5.462-3.091,7.429c-1.947,1.952-4.647,3.071-7.409,3.071
		c-2.764,0-5.471-1.123-7.429-3.081c-1.034-1.034-1.867-2.364-2.407-3.845c-1.438-3.947-5.192-6.574-9.395-6.574h-7.803
		c-4.204,0-7.959,2.629-9.396,6.58c-1.507,4.139-5.466,6.92-9.851,6.92c-4.391,0-8.354-2.781-9.86-6.92
		c-1.438-3.95-5.192-6.58-9.396-6.58h-7.786c-4.204,0-7.959,2.629-9.396,6.58c-1.507,4.139-5.466,6.92-9.851,6.92
		s-8.344-2.781-9.851-6.92c-1.438-3.95-5.192-6.58-9.396-6.58h-7.786c-4.204,0-7.959,2.629-9.396,6.58
		c-1.507,4.139-5.466,6.92-9.851,6.92s-8.344-2.781-9.851-6.92c-1.438-3.95-5.192-6.58-9.396-6.58h-7.786
		c-4.204,0-7.959,2.629-9.396,6.58c-1.507,4.139-5.47,6.92-9.86,6.92c-4.385,0-8.344-2.781-9.851-6.92
		c-1.438-3.95-5.192-6.58-9.396-6.58h-7.786c-4.204,0-7.959,2.629-9.396,6.58c-1.507,4.139-5.466,6.92-9.851,6.92
		s-8.344-2.781-9.851-6.92c-1.438-3.95-5.192-6.58-9.396-6.58h-7.785c-4.204,0-7.959,2.629-9.396,6.58
		c-1.507,4.139-5.466,6.92-9.851,6.92s-8.344-2.781-9.851-6.92c-1.438-3.95-5.192-6.58-9.396-6.58h-7.804
		c-4.201,0-7.955,2.626-9.395,6.573c-0.541,1.482-1.376,2.816-2.415,3.855c-1.924,1.923-4.701,3.071-7.43,3.071
		c-2.723,0-5.496-1.148-7.42-3.071c-1.957-1.958-3.08-4.665-3.08-7.429c0-2.763,1.123-5.471,3.081-7.429
		c1.033-1.033,2.364-1.866,3.85-2.407c3.947-1.439,6.574-5.193,6.574-9.395v-6.35c0-4.205-2.63-7.96-6.582-9.397
		c-4.141-1.506-6.923-5.465-6.923-9.852s2.782-8.345,6.923-9.851c3.952-1.437,6.582-5.192,6.582-9.397v-6.332
		c0-4.205-2.63-7.96-6.582-9.397c-4.141-1.506-6.923-5.465-6.923-9.852c0-4.388,2.781-8.347,6.921-9.852
		c3.952-1.437,6.584-5.193,6.584-9.398v-6.331c0-4.205-2.63-7.96-6.582-9.397c-4.141-1.506-6.923-5.465-6.923-9.852
		c0-4.388,2.781-8.347,6.921-9.852c3.952-1.437,6.584-5.193,6.584-9.398v-6.331c0-4.205-2.63-7.96-6.582-9.397
		c-4.141-1.506-6.923-5.465-6.923-9.852c0-4.392,2.782-8.355,6.924-9.861c3.951-1.438,6.581-5.193,6.581-9.397v-6.331
		c0-4.206-2.632-7.962-6.584-9.398c-4.14-1.505-6.921-5.464-6.921-9.852c0-4.386,2.782-8.345,6.923-9.851
		c3.952-1.438,6.582-5.193,6.582-9.398v-6.333c0-4.205-2.63-7.96-6.582-9.397c-4.141-1.506-6.923-5.465-6.923-9.852
		s2.782-8.345,6.923-9.851c3.952-1.437,6.582-5.192,6.582-9.397v-6.333c0-4.205-2.63-7.96-6.582-9.397
		c-4.141-1.506-6.923-5.465-6.923-9.851s2.782-8.345,6.923-9.851c3.952-1.437,6.582-5.193,6.582-9.398v-6.333
		c0-4.205-2.63-7.96-6.582-9.398c-4.141-1.506-6.923-5.465-6.923-9.851s2.782-8.345,6.923-9.851
		c3.952-1.437,6.582-5.193,6.582-9.398V49.73c0-4.201-2.626-7.954-6.572-9.394c-1.484-0.542-2.819-1.377-3.853-2.407
		c-1.957-1.957-3.08-4.665-3.08-7.428s1.123-5.471,3.081-7.429C64.749,21.148,67.522,20,70.245,20c2.729,0,5.506,1.148,7.428,3.069
		c1.04,1.041,1.876,2.375,2.417,3.858c1.439,3.947,5.193,6.573,9.395,6.573h7.804c4.204,0,7.959-2.629,9.396-6.58
		c1.507-4.139,5.466-6.921,9.851-6.921s8.344,2.781,9.851,6.921c1.438,3.95,5.192,6.58,9.396,6.58h7.785
		c4.204,0,7.959-2.629,9.396-6.58c1.507-4.139,5.466-6.921,9.851-6.921s8.344,2.781,9.851,6.921c1.438,3.95,5.192,6.58,9.396,6.58
		h7.795c4.205,0,7.961-2.631,9.398-6.583c1.504-4.138,5.459-6.918,9.84-6.918c4.391,0,8.354,2.781,9.86,6.921
		c1.438,3.95,5.192,6.58,9.396,6.58h7.786c4.204,0,7.959-2.629,9.396-6.58C247.041,22.781,251,20,255.384,20
		s8.344,2.781,9.851,6.921c1.438,3.95,5.192,6.58,9.396,6.58h7.786c4.204,0,7.959-2.629,9.396-6.58
		c1.507-4.139,5.466-6.921,9.851-6.921s8.344,2.781,9.851,6.921c1.438,3.95,5.192,6.58,9.396,6.58h7.786
		c4.204,0,7.959-2.629,9.396-6.58c1.507-4.139,5.466-6.921,9.851-6.921s8.344,2.781,9.851,6.921c1.438,3.95,5.192,6.58,9.396,6.58
		h7.812c4.202,0,7.957-2.627,9.396-6.576c0.541-1.485,1.376-2.82,2.398-3.844c1.962-1.957,4.673-3.08,7.438-3.08
		c2.722,0,5.495,1.148,7.418,3.071c1.959,1.958,3.082,4.666,3.082,7.429c0,2.762-1.12,5.462-3.092,7.429
		c-1.032,1.035-2.359,1.868-3.84,2.408c-3.945,1.44-6.57,5.193-6.57,9.394v6.352C391.233,60.287,393.863,64.042,397.813,65.479z"/>
	<path d="M362.233,52.5H102.25c-5.522,0-10,4.477-10,10V401.98c0,5.523,4.478,10,10,10h259.983c5.522,0,10-4.477,10-10V62.5
		C372.233,56.977,367.755,52.5,362.233,52.5z M352.233,72.5v169.989h-38.662c-4.923-38.022-37.488-67.497-76.83-67.497
		c-39.341,0-71.906,29.474-76.829,67.497H112.25V72.5H352.233z M293.349,242.489H180.133c4.749-26.951,28.316-47.497,56.607-47.497
		C265.033,194.992,288.601,215.538,293.349,242.489z M112.25,391.98V262.489h239.983V391.98H112.25z"/>
	<path d="M290.74,274.738H179.416c-5.522,0-10,4.477-10,10s4.478,10,10,10H290.74c5.522,0,10-4.477,10-10
		S296.262,274.738,290.74,274.738z"/>
	<path d="M272.739,306.986h-75.322c-5.522,0-10,4.477-10,10s4.478,10,10,10h75.322c5.522,0,10-4.477,10-10
		S278.261,306.986,272.739,306.986z"/>
	<path d="M146.133,118.271c1.876,1.875,4.419,2.929,7.071,2.929s5.196-1.054,7.071-2.929l12.728-12.728
		c3.905-3.906,3.905-10.237,0-14.142c-3.906-3.905-10.236-3.905-14.143,0l-5.656,5.657l-5.657-5.657
		c-3.906-3.905-10.236-3.905-14.143,0c-3.905,3.906-3.905,10.237,0,14.142L146.133,118.271z"/>
</g>
</svg>