<?xml version="1.0" encoding="UTF-8"?>
<svg id="Layer_1" data-name="Layer 1" xmlns="http://www.w3.org/2000/svg" xmlns:xlink="http://www.w3.org/1999/xlink" viewBox="0 0 1280 1024">
  <defs>
    <style>
      .cls-1 {
        fill: none;
        stroke: url(#radial-gradient);
        stroke-miterlimit: 10;
        stroke-width: 17px;
      }
    </style>
    <radialGradient id="radial-gradient" cx="-114.05" cy="459.35" fx="-114.05" fy="459.35" r="428.42" gradientTransform="translate(941.98 186.49) rotate(30)" gradientUnits="userSpaceOnUse">
      <stop offset="0" stop-color="#00c27e"/>
      <stop offset=".3" stop-color="#00c27e"/>
      <stop offset=".35" stop-color="#00c27e"/>
      <stop offset=".35" stop-color="#00c27e"/>
      <stop offset=".35" stop-color="#00c27e"/>
      <stop offset=".48" stop-color="#00be82"/>
      <stop offset=".62" stop-color="#00b48f"/>
      <stop offset=".76" stop-color="#00a2a5"/>
      <stop offset=".82" stop-color="#0099b2"/>
      <stop offset=".84" stop-color="#0097b9"/>
      <stop offset=".86" stop-color="#0094ce"/>
      <stop offset=".87" stop-color="#0090e8"/>
      <stop offset=".91" stop-color="#0091df"/>
    </radialGradient>
  </defs>
  <path class="cls-1" d="m977.7,737.52c-4.18,7.24-157.56-79.23-162.19-72.43s132.01,117.86,126.89,124.31c-5.19,6.53-144.03-101.76-149.63-95.71-5.66,6.11,112.91,136.27,106.86,141.88-6.1,5.66-127.11-122.23-133.57-117.08-6.5,5.18,91.19,151.66,84.35,156.32s-107.35-139.91-114.52-135.78,67.51,163.58,60.04,167.17c-7.48,3.6-85.3-154.35-93.01-151.33-7.72,3.03,42.46,171.8,34.54,174.24s-61.46-165.3-69.54-163.45c-8.08,1.85,16.54,176.19,8.34,177.43-8.19,1.24-36.26-172.58-44.53-171.95s-9.81,176.69-18.12,176.7c-8.27,0-10.13-176.05-18.42-176.67-8.24-.61-36.1,173.24-44.32,172.01-8.17-1.23,16.38-175.58,8.27-177.43-8.05-1.84-61.68,165.87-69.64,163.4-7.88-2.44,42.56-171.13,34.8-174.18-7.66-3.02-85.78,154.78-93.3,151.15s67.52-162.91,60.28-167.09c-7.24-4.18-107.76,140.38-114.56,135.75-6.9-4.7,90.7-151.25,84.25-156.37-6.53-5.19-127.4,122.83-133.45,117.23-6.11-5.66,112.31-135.96,106.69-142.01-5.66-6.1-144.38,102.34-149.53,95.88s131.45-117.55,126.8-124.39-158.08,79.55-162.21,72.38c-4.15-7.2,147.56-96.58,143.97-104.04-3.6-7.48-168.16,55.12-171.18,47.41s160.27-73.57,157.83-81.49-174.48,29.58-176.32,21.5,169.41-49,168.16-57.2c-1.24-8.19-176.93,3.39-177.56-4.89s174.8-23.28,174.8-31.58c0-8.27-175.46-23-174.85-31.29s176.31,3.12,177.55-5.11-170.04-49.02-168.18-57.14c1.84-8.05,173.84,29.57,176.31,21.61,2.44-7.88-160.76-73.97-157.71-81.73,3.02-7.66,167.46,55.25,171.09,47.73s-148-97-143.82-104.24,157.56,79.23,162.19,72.43-132.01-117.86-126.89-124.31c5.19-6.53,144.03,101.76,149.63,95.71,5.66-6.11-112.91-136.27-106.86-141.88s127.11,122.23,133.57,117.08c6.5-5.18-91.19-151.66-84.35-156.32,6.87-4.68,107.35,139.91,114.52,135.78,7.2-4.15-67.51-163.58-60.04-167.17s85.3,154.35,93.01,151.33-42.46-171.8-34.54-174.24c7.92-2.44,61.46,165.3,69.54,163.45,8.08-1.85-16.54-176.19-8.34-177.43,8.19-1.24,36.26,172.58,44.53,171.95s9.81-176.69,18.12-176.7c8.27,0,10.13,176.05,18.42,176.67s36.1-173.24,44.32-172.01c8.17,1.23-16.38,175.58-8.27,177.43,8.05,1.84,61.68-165.87,69.64-163.4,7.88,2.44-42.56,171.13-34.8,174.18,7.66,3.02,85.78-154.78,93.3-151.15,7.41,3.58-67.52,162.91-60.28,167.09,7.24,4.18,107.76-140.38,114.56-135.75,6.9,4.7-90.7,151.25-84.25,156.37,6.53,5.19,127.4-122.83,133.45-117.23,6.11,5.66-112.31,135.96-106.69,142.01,5.66,6.1,144.38-102.34,149.53-95.88,5.18,6.5-131.45,117.55-126.8,124.39,4.68,6.87,158.08-79.55,162.21-72.38,4.15,7.2-147.56,96.58-143.97,104.04,3.6,7.48,168.16-55.12,171.18-47.41,3.03,7.72-160.27,73.57-157.83,81.49s174.48-29.58,176.32-21.5c1.85,8.08-169.41,49-168.16,57.2s176.93-3.39,177.56,4.89-174.8,23.28-174.8,31.58c0,8.27,175.46,23,174.85,31.29s-176.31-3.12-177.55,5.11c-1.23,8.17,170.04,49.02,168.18,57.14-1.84,8.05-173.84-29.57-176.31-21.61-2.44,7.88,160.76,73.97,157.71,81.73-3.02,7.66-167.46-55.25-171.09-47.73-3.58,7.41,148,97,143.82,104.24Z"/>
</svg>