<?xml version="1.0" encoding="UTF-8"?>
<svg id="Layer_1" data-name="Layer 1" xmlns="http://www.w3.org/2000/svg" viewBox="0 0 472.27 460.97">
  <defs>
    <style>
      .cls-1 {
        fill: #00b290;
      }

      .cls-2 {
        fill: #00a9ad;
      }

      .cls-3 {
        fill: #00a863;
      }

      .cls-4 {
        fill: #0090e8;
      }

      .cls-5 {
        fill: #f84e27;
      }

      .cls-6 {
        fill: #fd6a2a;
      }

      .cls-7 {
        fill: #fd5a44;
      }

      .cls-8 {
        fill: #fda432;
      }

      .cls-9 {
        fill: #fe81ae;
      }

      .cls-10 {
        fill: #63c553;
      }

      .cls-11 {
        fill: #0099b2;
      }
    </style>
  </defs>
  <path class="cls-2" d="m27.45,103.36c5.61-.03,11.23-.07,16.84-.07,9.2-.01,18.4,0,27.89,0-3.06-1.01-5.86-1.96-8.68-2.86-4.48-1.43-8.97-2.81-13.44-4.25-10.23-3.31-20.47-6.59-30.66-10.01-3.35-1.12-6.63-2.52-9.85-3.99-2.22-1.01-3.58-2.79-3.42-5.41.16-2.59,2.21-4.45,4.8-4.53,4.65-.15,8.9,1.56,13.24,2.8,4.69,1.34,9.31,2.89,13.94,4.42,4.08,1.35,8.12,2.82,12.19,4.19,2.13.72,4.29,1.35,6.44,2.03-.07,1.1.33,1.78,1.52,2.01.58.11,1.08.6,1.63.9.74.39,1.46.85,2.24,1.12,1.84.62,3.73,1.1,5.58,1.71,3.75,1.24,7.52,2.46,11.23,3.8,5.9,2.12,11.79,4.26,17.62,6.56,1.61.64,2.74,2.1,3.17,3.92-.16,4.78-2.6,6.95-7.47,7-3.88.04-7.76.35-11.64.54-.18.08-.38.24-.55.22-2.97-.38-5.94-.84-8.92-1.17-4.97-.55-9.95-1.01-14.92-1.55-3.82-.41-7.64-.86-11.46-1.32-1.04-.13-2.06-.41-3.1-.53-1.18-.14-2.38-.12-3.55-.28-.99-.14-1.94-.61-2.93-.65-1.31-.06-1.77-.59-1.71-1.86.07-1.43-.62-2.16-2.13-2.04-.89.07-1.81.08-2.69-.02-.42-.05-.81-.43-1.21-.66Z"/>
  <path class="cls-2" d="m27.45,103.36c.4.23.79.61,1.21.66.89.1,1.8.09,2.69.02,1.51-.12,2.2.62,2.13,2.04-.06,1.27.39,1.8,1.71,1.86.98.04,1.94.51,2.93.65,1.17.17,2.37.14,3.55.28,1.04.12,2.06.4,3.1.53,3.82.46,7.63.91,11.46,1.32,4.97.53,9.95.99,14.92,1.55,2.98.33,5.95.79,8.92,1.17.17.02.37-.14.55-.22,2.34.44,4.68.84,7.01,1.32,2.26.47,4.55.88,6.74,1.59,2.32.75,4.14,2.18,4.37,4.89.26,3.02-1.12,5.21-3.82,6.25-2.53.98-5.21,1.73-7.89,2.15-5.34.83-10.73,1.35-16.1,2-1.76.21-3.52.39-5.28.59-.26-.3-.46-.76-.79-.87-2.57-.89-5.12-1.88-7.75-2.53-2.34-.58-5.71-3.16-5.8-5.22,2.31-.18,4.61-.36,6.92-.55,3.59-.29,7.17-.58,10.74-1.12-2.99-.26-5.99-.51-8.98-.8-4.11-.4-8.21-.87-12.32-1.25-2.92-.27-5.85-.4-8.77-.67-3.29-.3-6.57-.73-9.86-1.04-2.36-.23-4.73-.3-7.08-.56-3.15-.35-6.29-.77-9.42-1.26-2.38-.37-4.77-.79-7.11-1.4-3.07-.8-4.51-2.88-4.37-5.94.08-1.81,1.73-3.75,3.87-4.28,1.52-.38,3.09-.68,4.65-.73,5.96-.2,11.93-.28,17.9-.41Z"/>
  <path class="cls-2" d="m51.3,123.39c.09,2.06,3.47,4.65,5.8,5.22,2.63.65,5.19,1.63,7.75,2.53.32.11.53.57.79.87-4.25.23-8.5.38-12.74.71-4.06.32-8.1.88-12.16,1.22-3.77.31-7.56.47-11.41.92.32.12.64.33.96.36,3.34.23,6.69.38,10.03.66,4.48.37,8.95.85,13.43,1.24,1.93.17,3.88.2,5.81.35,3.54.29,7.08.64,10.62.93,1.98.17,3.97.28,5.96.41-.36.39-.64.97-1.08,1.12-1.73.6-3.49,1.16-5.27,1.56-1.14.26-1.88.78-2.35,1.85-.38.86-1.03,1.61-1.39,2.48-.21.52-.08,1.17-.1,1.77-4.79-.41-9.59-.83-14.38-1.21-3.14-.25-6.29-.38-9.43-.63-4.98-.39-9.95-.83-14.92-1.27-3.56-.31-7.15-.43-10.66-1.04-4.08-.71-8.27-1.02-12.13-2.81-2.56-1.18-4.63-4.01-4.35-6.07.35-2.52,1.72-4.4,4.01-5.28,2.58-.99,5.28-1.77,8-2.27,3.6-.66,7.27-1.01,10.92-1.38,3.77-.38,7.55-.61,11.32-.91,5.65-.45,11.3-.9,16.95-1.35Z"/>
  <path class="cls-2" d="m99.73,105.68c-.43-1.82-1.55-3.28-3.17-3.92-5.83-2.31-11.72-4.44-17.62-6.56-3.72-1.34-7.48-2.56-11.23-3.8-1.85-.61-3.73-1.09-5.58-1.71-.78-.26-1.5-.72-2.24-1.12-.55-.29-1.05-.78-1.63-.9-1.19-.23-1.59-.91-1.52-2.01,6.18,2.02,12.36,4.03,18.55,6.05.06-.1.12-.2.17-.31-1.12-.85-2.23-1.72-3.38-2.54-5.24-3.78-10.53-7.49-15.73-11.32-10.21-7.51-20.4-15.04-30.52-22.68-1.65-1.25-3.08-2.92-4.24-4.64-1.11-1.65-.81-3.58.36-5.23,1.06-1.5,2.6-2.26,4.4-2.01,1.27.18,2.64.51,3.69,1.2,5.51,3.57,11,7.16,16.35,10.95,6.74,4.77,13.34,9.74,20,14.63.21.15.38.36.57.54-.61.85-.43,1.57.47,2.02.09.05.57-.68.87-1.05.4.3.8.6,1.21.89-.38,1.06-.8,2.11.4,2.98,6.17,4.5,12.4,8.94,18.49,13.55,3.65,2.77,7.06,5.84,10.62,8.73,1.73,1.41,2.65,3.1,2.32,5.37-.53.96-1.06,1.91-1.6,2.87Z"/>
  <g>
    <path class="cls-7" d="m56.25,201.99c.27-.34.71-1.01.8-.96.83.41.99,1.07.43,1.85-.41-.3-.82-.59-1.23-.89Z"/>
    <path class="cls-8" d="m472.27,407.82c-.2.07-.41.13-.61.2.2-.07.41-.13.61-.2Z"/>
    <path class="cls-8" d="m448.55,375.55c-.14,0-.27,0-.41,0,.15-.08.3-.15.45-.23.03.09.02.16-.05.23Z"/>
    <path class="cls-10" d="m261.21,356.59c1.46.22,2.92.44,4.38.66-1.45,0-2.9,0-4.34,0,0-.22-.02-.44-.03-.65Z"/>
    <path class="cls-6" d="m300.68,366.28c.58-.08,1.17-.16,1.75-.24-.58.08-1.17.16-1.75.24Z"/>
    <path class="cls-5" d="m256.97,320.92c.35.09.7.19,1.05.28-.35-.09-.7-.19-1.05-.28Z"/>
    <path class="cls-8" d="m129.02,329.14c.24-.08.48-.15.73-.23-.24.08-.48.15-.73.23Z"/>
    <line class="cls-9" x1="181.02" y1="215.42" x2="195.56" y2="213.76"/>
    <path class="cls-4" d="m184.66,233.2c-3.49-.28-6.98-.56-10.47-.84-1.67-.13-3.35-.28-5.02-.4-7.12-.52-14.25-.99-21.37-1.59-3.85-.32-7.68-.87-11.52-1.31-.32-.09-.64-.17-.96-.26-2.23-.47-4.45-.93-6.68-1.41-2.44-.52-4.22-2.03-5.61-3.99-1.36-1.92-.83-4.62,1.18-6.57,2.22-2.15,5.13-2.81,7.99-3.22,6.59-.93,13.21-1.64,19.82-2.31,6.03-.61,12.08-1.07,18.12-1.55,2.47-.19,4.95-.2,7.42-.39,3.81-.3,7.61-.69,11.41-1.04,0-.14.01-.28.02-.42-1.68-.16-3.36-.34-5.04-.46-4.87-.36-9.74-.71-14.62-1.05-2.75-.19-5.5-.29-8.24-.53-5.55-.48-11.12-.89-16.65-1.59-5.28-.67-10.55-1.53-15.77-2.61-1.66-.34-3.46-1.33-4.62-2.56-2.56-2.74-2.59-5.32.29-7.83,1.68-1.47,4.14-2.3,6.39-2.79,3.81-.83,7.73-1.26,11.62-1.69,5.48-.6,10.98-1.07,16.47-1.56,1.99-.18,3.99-.22,5.98-.37,4.09-.29,8.17-.62,12.26-.91,2.1-.15,4.2-.24,6.3-.36,1.46-.09,2.91-.2,4.37-.58-3.01-.23-6.03-.48-9.04-.7-3.67-.26-7.35-.51-11.02-.75-2.74-.18-5.48-.3-8.22-.52-4.2-.34-8.4-.71-12.6-1.13-4.45-.44-8.92-.74-13.32-1.49-2.79-.48-5.55-1.48-8.16-2.62-2.13-.93-3.55-3.91-3.05-5.63.63-2.17,1.8-4.1,4.06-4.75,3.43-.99,6.92-1.84,10.44-2.45,3.42-.59,6.9-.88,10.37-1.17,5.21-.44,10.43-.75,15.65-1.13,4.88-.36,9.76-.72,14.63-1.1,2.75-.22,5.49-.49,8.22-1.09-2.78-.22-5.56-.48-8.34-.66-3.99-.25-7.99-.4-11.99-.66-4.47-.28-8.94-.5-13.39-.98-6.43-.69-12.84-1.49-19.23-2.45-2.33-.35-4.67-1.06-6.83-2-2.32-1.01-3.85-3.05-3.57-5.65.31-2.79,2.2-4.71,4.89-5.43,3.45-.91,6.96-1.65,10.48-2.2,3.63-.56,7.3-.83,10.96-1.16,2.31-.21,4.63-.3,6.94-.48,3.56-.29,7.12-.67,10.69-.93,2.63-.19,5.27-.18,7.9-.36,3.83-.26,7.65-.62,11.48-1.27-3.64-.32-7.27-.68-10.91-.96-5.19-.4-10.38-.74-15.58-1.11-1.48-.11-2.95-.27-4.43-.39-5.52-.45-11.05-.72-16.54-1.41-3.63-.45-7.19-1.44-10.76-2.3-.9-.22-1.79-.72-2.53-1.29-3.69-2.87-3.49-7.07.28-9.43,2-1.25,4.48-1.86,6.83-2.41,2.86-.66,5.81-.95,9.21-1.48-.86-.25-1.28-.47-1.7-.48-2.23-.05-4.46.09-6.67-.1-2.64-.23-5.31-.49-7.85-1.18-2.28-.62-3.22-2.48-3.57-4.93-.23-1.61-1.37-3.17-2.39-4.55-.97-1.32-2.26-2.38-3.93-2.96-1.91-.66-3.72-1.12-5.84-.89-1.89.2-3.42,1.08-5.12,1.6.62-2.24.09-4.27-1.13-6.18-1.68-2.62-3.29-5.28-5.03-7.85-2.63-3.88-5.32-7.73-8.06-11.54-3.49-4.86-7.57-9.33-9.97-14.93-.26-.61-.77-1.1-1.13-1.61h1.71c3.46,4.75,6.92,9.5,10.38,14.25.48.66.97,1.32,1.46,1.98.13-.07.25-.13.38-.2-.82-2.55-1.61-5.11-2.45-7.65-2.13-6.43-4.29-12.85-6.42-19.27-2.38-7.16-4.85-14.3-7.08-21.5-1.36-4.39-2.38-8.88-3.45-13.35-.24-1-.21-2.14,0-3.15.37-1.89,1.48-3.4,3.41-3.81,1.95-.41,4.12-.41,5.33,1.5,1.38,2.17,2.6,4.49,3.5,6.9,1.83,4.89,3.45,9.87,5.08,14.84,2.43,7.41,4.8,14.85,7.18,22.28,2.06,6.43,4.11,12.86,6.17,19.28.11.35.28.68.41,1.02.05.08.09.15.14.23.04-.16.08-.32.12-.49-.05-.42-.13-.83-.13-1.25-.05-18.34-.13-36.68-.09-55.02,0-3.28.44-6.59.94-9.84C105.95,1.38,107.91-.06,111.18,0c2.1.04,3.86,1.33,4.42,3.65.5,2.09.91,4.25.92,6.39.13,19.97.17,39.95.24,59.92,0,.16-.06.31-.09.47.05.22.1.45.14.67.14-.23.27-.46.41-.69,2.17-6.9,4.31-13.8,6.52-20.69,3.13-9.76,6.25-19.52,9.5-29.24,1.3-3.89,2.84-7.72,4.43-11.5,1.09-2.58,2.92-4.22,6.04-3.9,2.1.21,3.8,1.83,4.1,3.91.43,3.01-.23,5.86-1.1,8.64-2.95,9.44-6.01,18.85-9.03,28.27-1.43,4.47-2.84,8.95-4.32,13.4-1.61,4.85-3.31,9.67-4.96,14.5-.03.07.06.19.2.55.47-.54.9-.95,1.24-1.42,9.1-12.58,33.6-45.87,36.83-49.87,1.62-2.01,3.58-3.39,6.42-3.04,1.88.23,3.84,1.85,3.97,3.72.13,1.98-.07,3.9-1.25,5.62-4.72,6.85-9.31,13.79-14.17,20.54-7.05,9.81-14.29,19.49-21.45,29.22-.53.72-1.07,1.43-1.43,2.42.62-.4,1.26-.77,1.85-1.21,13.05-9.54,26.06-19.13,39.16-28.6,3.86-2.79,7.92-5.32,11.99-7.78,2.55-1.54,5.16-1.3,6.83.2,2.05,1.85,2.53,4.9.64,6.99-2.11,2.34-4.47,4.54-7.01,6.42-11.84,8.77-23.78,17.4-35.69,26.08-3.42,2.49-6.85,4.95-10.17,7.76.76-.17,1.54-.27,2.28-.51,12.02-3.97,24-8.05,36.04-11.92,7.28-2.34,14.65-4.43,22.03-6.46,1.62-.44,3.57-.5,5.16-.04,3.76,1.08,4.72,6.17,1.54,8.52-2.17,1.6-4.76,2.79-7.34,3.66-12.03,4.08-24.12,8.02-36.2,11.95-6.58,2.14-13.19,4.17-19.78,6.26-.27.09-.51.29-.93.53,5.93,0,11.65,0,17.38,0,13.31.01,26.61,0,39.92.07,2.77.02,5.55.36,8.31.65,1.83.2,3.53.83,4.64,2.44,1.94,2.79.97,6.74-2.45,8.09-3.26,1.29-6.76,2.13-10.24,2.68-5.05.8-10.16,1.21-15.25,1.68-6.48.59-12.98,1.1-19.47,1.59-4.66.36-9.34.62-14,.96-.94.07-1.86.28-2.92.45.26.19.44.43.64.45,1.47.14,2.93.26,4.4.35,5.53.33,11.06.61,16.58.96,4.32.28,8.64.57,12.95.97,4.97.46,9.94,1,14.9,1.59,2.99.35,5.98.77,8.94,1.32,1.39.26,2.77.76,4.04,1.38,2.14,1.04,3.49,2.72,3.51,5.24.02,2.51-1.2,4.36-3.4,5.29-2.12.9-4.37,1.61-6.64,2-4.14.71-8.33,1.2-12.51,1.64-5.8.6-11.62,1.1-17.44,1.57-5.67.46-11.34.91-17.02,1.24-2.78.16-5.58.03-8.36.03,0,.21-.01.42-.02.62,2.31.22,4.62.49,6.94.65,3.48.24,6.96.36,10.44.6,6.08.41,12.17.75,18.24,1.35,7.12.71,14.22,1.6,21.32,2.56,1.74.24,3.47.92,5.08,1.67,2.24,1.05,3.47,2.9,3.38,5.47-.09,2.51-1.45,4.32-3.67,5.12-2.8,1-5.71,1.9-8.65,2.26-7.68.94-15.4,1.62-23.12,2.3-4.82.42-9.67.64-14.5.98-4.35.31-8.7.65-13.05,1-.39.03-.77.22-1.12.65,3.19.18,6.38.34,9.57.56,6.09.41,12.19.83,18.28,1.29,4.78.36,9.58.63,14.33,1.24,5.57.72,11.13,1.61,16.63,2.72,2.56.52,4.69,2.07,5.19,4.97.51,2.96-.87,5.55-3.97,6.6-2.94,1-6,1.76-9.08,2.21-5.06.73-10.16,1.2-15.25,1.64-5.77.51-11.54.88-17.32,1.3-4.47.32-8.94.61-13.41.95-2.18.16-4.35.41-6.51.95,4.34.31,8.68.61,13.02.92,5.82.42,11.64.84,17.46,1.29,3.56.28,7.13.54,10.67.96,4.49.53,8.97,1.14,13.42,1.88,2.43.41,4.88.95,7.16,1.82,2.5.95,3.96,2.85,3.81,5.79-.14,2.67-1.51,4.55-3.85,5.25-3.83,1.15-7.76,2.09-11.72,2.68-5.21.78-10.47,1.2-15.72,1.66-4.57.4-9.15.63-13.72.96-5.57.41-11.13.85-16.7,1.29-1.86.15-3.71.33-5.56.49,0,.15,0,.29,0,.44,12.45.98,24.89,1.95,37.34,2.93-.19.31-.3.7-.57.91-2.78,2.14-4.98,4.68-5.8,8.2Z"/>
    <path class="cls-3" d="m283.94,321.24c-8.63-.77-17.28-1.46-25.9-2.34-3.18-.32-6.33-.99-9.46-1.69-1.42-.32-2.85-.91-4.08-1.69-3.9-2.48-3.89-7.76.19-9.89,2.48-1.29,5.33-2.1,8.11-2.55,5.54-.9,11.12-1.53,16.71-2.02,7.68-.67,15.39-1.05,23.08-1.64,4.56-.35,9.11-.85,13.65-1.6-8.39-.42-16.79-.79-25.18-1.27-4.22-.24-8.43-.58-12.63-1-5.62-.55-11.25-1.1-16.85-1.89-2.22-.31-4.43-1.07-6.5-1.97-2.24-.98-3.52-2.91-3.42-5.45.1-2.54,1.52-4.41,3.8-5.22,2.82-1,5.77-1.86,8.73-2.22,6.2-.75,12.44-1.14,18.66-1.64,5.52-.45,11.03-.87,16.55-1.25,3.96-.27,7.92-.45,11.88-.67.52-.03,1.04-.06,1.61-.33-.24-.09-.48-.25-.72-.26-2.74-.13-5.49-.2-8.23-.36-7.86-.46-15.72-.95-23.57-1.46-3.58-.23-7.19-.33-10.74-.82-4.46-.61-9.03-.78-13.25-2.58-1.15-.49-2.33-1.15-3.18-2.03-2.58-2.66-2.08-6.88,1.29-8.68,2.36-1.26,5.09-2.11,7.75-2.49,6.67-.97,13.39-1.66,20.1-2.28,7.1-.65,14.22-1.06,21.32-1.63,4.66-.37,9.3-.83,13.95-1.26.23-.02.45-.12.67-.48-1.22-.14-2.43-.33-3.66-.4-2.58-.16-5.17-.2-7.74-.4-4.88-.37-9.75-.86-14.63-1.22-5-.38-10.03-.46-15.01-1.05-6.11-.72-12.17-1.8-18.24-2.82-1.33-.23-2.65-.78-3.86-1.4-2.18-1.11-3.57-2.88-3.51-5.43.06-2.53,1.42-4.43,3.72-5.26,2.42-.87,4.97-1.64,7.51-1.84,8.59-.68,17.2-1.23,25.82-1.55,8.47-.32,16.96-.28,25.44-.43.88-.02,1.76-.23,2.63-.51-3.7-.34-7.39-.69-11.09-1.03-6.73-.63-13.46-1.2-20.19-1.9-7.82-.81-15.65-1.64-23.45-2.66-2.26-.3-4.51-1.11-6.62-2.01-2.83-1.2-4.32-3.99-3.81-6.46.49-2.39,3.13-4.3,6.1-4.51,15.44-1.11,30.9-.51,46.36-.62,6.09-.05,12.17,0,18.34-.28-1.51-.51-3.01-1.06-4.53-1.54-14.08-4.5-28.18-8.93-42.23-13.5-4.66-1.52-9.27-3.25-13.8-5.13-1.59-.66-3.22-1.8-4.23-3.16-2.19-2.94-.21-7.11,3.43-7.57,1.29-.16,2.69-.13,3.93.22,8.33,2.38,16.67,4.73,24.92,7.37,11.86,3.79,23.64,7.81,35.46,11.71.32.11.71.02,1.06.03,0,.06,0,.13,0,.19,0-.02.03-.05.03-.06-.01-.04-.04-.07-.06-.11-8.72-6.29-17.48-12.52-26.14-18.89-8.23-6.06-16.37-12.25-24.51-18.43-1.04-.79-1.96-1.79-2.79-2.81-1.67-2.05-1.72-4.74-.25-6.61,1.48-1.9,4.11-2.66,6.45-1.38,3.61,1.98,7.2,4.07,10.53,6.48,13.71,9.88,27.32,19.89,40.97,29.85.73.53,1.48,1.02,2.22,1.53.17.03.33.06.5.09.02.06.04.11.07.17,0-.03.02-.07,0-.08-.03-.03-.07-.05-.11-.07-.08-.13-.15-.27-.23-.4-4.02-5.52-8.07-11.03-12.06-16.58-7.82-10.89-15.63-21.79-23.39-32.73-1-1.41-1.79-3.01-2.45-4.62-1.03-2.5-.29-5.04,1.67-6.39,1.83-1.26,4.85-1.16,6.62.59,2.21,2.2,4.35,4.52,6.19,7.02,10.05,13.67,19.99,27.41,29.97,41.13,1.08,1.49,2.17,2.98,3.48,4.79,0-.65.07-.94-.01-1.19-3.08-9.22-6.24-18.41-9.24-27.65-3.14-9.67-6.19-19.37-9.13-29.11-.58-1.93-.73-4.06-.69-6.1.04-2.1,1.39-3.54,3.41-4.12,2.18-.62,4.32-.18,5.52,1.75,1.47,2.37,2.7,4.93,3.66,7.55,2.2,6,4.23,12.07,6.22,18.15,3.37,10.32,6.65,20.68,9.98,31.01.68,2.1,1.4,4.19,2.42,6.26,0-.54,0-1.08,0-1.62.01-19.25-.01-38.5.08-57.75.01-2.34.53-4.73,1.11-7.02.59-2.33,2.56-3.66,4.81-3.7,2.17-.03,4.17,1.18,4.82,3.45.59,2.05.79,4.23.96,6.37.23,2.84.35,5.69.36,8.54.02,16.71,0,33.41-.02,50.12,0,.55,0,1.11.31,1.71.32-.98.64-1.96.96-2.94,2.7-8.41,5.35-16.83,8.13-25.22,3.19-9.63,6.45-19.24,9.78-28.83.67-1.94,1.61-3.82,2.67-5.57,1.12-1.85,2.88-2.72,5.14-2.41,2.07.28,3.53,1.37,4,3.34.32,1.35.41,2.92.03,4.23-2.78,9.65-5.59,19.3-8.62,28.87-3.33,10.49-6.91,20.89-10.38,31.34-.07.19-.14.38-.21.57.06.03.11.05.17.08l.31-.42c4.85-6.7,9.66-13.42,14.55-20.08,6.96-9.48,13.97-18.94,21.01-28.36,1.13-1.52,2.51-2.87,3.89-4.18,1.61-1.54,3.63-1.73,5.62-1.04,2.82.98,4.06,4.04,2.68,6.95-1.22,2.57-2.67,5.07-4.31,7.4-5.89,8.36-11.91,16.64-17.88,24.94-.15.21-.36.38-.54.57-1.31.59-2.88.9-3.88,1.83-1.42,1.32-2.41,3.09-3.58,4.68-2.31,3.13-4.57,6.3-6.92,9.4-5.4,7.11-10.87,14.16-16.26,21.27-1.49,1.97-3.39,2.94-5.83,2.95-.96-.42-1.88-1-2.88-1.22-1.58-.35-3.23-.67-4.83-.6-1.57.07-3.13.38-4.58,1.36-1.84,1.23-3.44,2.48-4.43,4.54-.58,1.2-.97,2.35-1.16,3.67-.31,2.09-1.74,3.48-3.75,3.87-2.73.53-5.52.95-8.3,1.02-5.81.15-11.62.05-17.45.36,3.54.42,7.09.71,10.6,1.29,4.59.75,9.21,1.48,13.69,2.68,3.72.99,5.13,3.25,5.14,6.54.01,2.83-1.5,4.78-3.95,5.56-3.09.98-6.32,1.63-9.54,2.01-4.55.54-9.14.82-13.72.99-5.98.23-11.97.21-17.96.36-3.34.08-6.68.29-10.06.73,1.41.17,2.81.41,4.23.5,5.01.34,10.03.48,15.02.97,8.68.84,17.36,1.78,26.01,2.89,2.31.3,4.6,1.21,6.76,2.17,2.21.98,3.24,2.95,3.15,5.4-.09,2.4-1.3,4.23-3.45,5.08-2.49.98-5.1,1.88-7.74,2.24-6.7.93-13.43,1.67-20.16,2.25-11.28.97-22.58,1.74-33.88,2.61-.1,0-.19.08-.35.14,2.34.26,4.62.6,6.92.74,3.21.19,6.44.16,9.65.35,4.2.25,8.4.63,12.6.93,2.1.15,4.21.19,6.3.37,4.68.38,9.36.79,14.04,1.25,2.63.26,5.26.53,7.86,1,1.6.29,3.19.83,4.66,1.52,2.15,1,3.52,2.68,3.6,5.19.08,2.51-1.05,4.48-3.28,5.34-2.84,1.09-5.82,2.04-8.82,2.43-6.7.88-13.43,1.45-20.17,2-5.53.45-11.08.67-16.62,1.05-3.77.25-7.53.58-11.3,1.24,1.29.1,2.58.23,3.87.31,5.36.32,10.72.64,16.09.94,2.38.13,4.77.13,7.14.33,5.77.48,11.54.99,17.3,1.6,2.98.31,5.96.75,8.9,1.32,1.37.27,2.76.83,3.96,1.56,4.05,2.44,4.03,7.99-.21,10.07-2.62,1.28-5.56,2.13-8.45,2.55-6.76.97-13.56,1.66-20.36,2.3-6.83.64-13.67,1.07-20.51,1.6-4.15.32-8.3.63-12.45.96-.48.04-.96.13-1.41.58,5.23.47,10.45.94,15.68,1.41-.11,1.67-.48,3-2.17,4.04-1.73,1.07-3.92,2.22-3.56,4.97Z"/>
    <path class="cls-1" d="m76.15,138.82c4.57.71,9.16,1.33,13.7,2.18,2.04.38,4.11,1,5.96,1.93,4.15,2.09,4.16,8.69-.49,10.6-3.07,1.26-6.38,2.01-9.65,2.66-3.65.73-7.37,1.14-11.07,1.58-2.1.25-4.22.21-6.33.39-4.75.39-9.49.89-14.24,1.25-3.78.29-7.57.39-11.35.66-3.94.29-7.88.69-11.89,1.28.74.21,1.46.53,2.21.6,3.14.27,6.29.43,9.43.68,5.02.4,10.03.86,15.05,1.24,3.29.25,6.59.34,9.88.62,2.98.25,5.94.66,8.91.98,2.79.31,5.61.41,8.35.94,3.54.68,7.09,1.46,10.49,2.64,2.53.88,3.83,2.99,3.68,5.88-.12,2.29-1.27,3.96-3.18,4.76-2.69,1.12-5.52,2.02-8.37,2.61-3.69.75-7.45,1.17-11.2,1.61-2.83.32-5.68.41-8.51.66-4.7.4-9.39.9-14.09,1.27-3.61.28-7.24.37-10.85.64-4.29.31-8.57.73-13.16,1.12.59.21.93.43,1.28.45,4.81.35,9.63.62,14.44,1,4.49.36,8.96.86,13.45,1.23,3.4.28,6.82.35,10.22.68,4.54.43,9.08.96,13.61,1.57,3.16.43,6.32.96,9.44,1.66,1.51.34,3.02.99,4.36,1.78,3.33,1.97,3.69,7.63-.29,9.91-3,1.71-6.3,2.38-9.65,2.82-5.63.73-11.26,1.42-16.91,1.98-5.27.52-10.56.85-15.85,1.25-4.35.33-8.69.64-13.04.99-3.63.3-7.26.66-10.9,1.31,3.92.28,7.84.53,11.75.86,3.23.27,6.45.66,9.67.95,1.72.16,3.45.22,5.18.36,3.75.3,7.51.63,11.26.93,2.87.23,5.75.32,8.6.64,3.69.42,7.38.93,11.04,1.55,2.46.42,4.94.94,7.3,1.74,3.03,1.04,4.36,3.17,4.38,6.09.01,2.89-1.74,4.54-4.11,5.46-2.33.9-4.79,1.6-7.25,1.97-5.92.89-11.87,1.63-17.83,2.26-4.38.47-8.78.68-13.17,1-5.81.43-11.63.83-17.44,1.27-2.81.21-5.62.49-8.52.95.59.2,1.18.53,1.78.57,3.51.25,7.03.4,10.54.66,5.23.39,10.46.88,15.69,1.28,3.14.24,6.29.33,9.43.63,3.75.35,7.49.81,11.22,1.29,3.65.47,7.31.92,10.92,1.59,1.89.36,3.78,1.01,5.52,1.84,2.22,1.06,3.34,2.92,3.25,5.52-.09,2.5-1.35,4.33-3.47,5.05-3.56,1.22-18.63,4-22.49,4.42-3.02.33-6.06.4-9.09.64-5.08.41-10.15.87-15.22,1.29-2.98.24-5.96.45-8.94.65-3.3.23-6.61.43-9.97.96.34.1.67.27,1.01.29,3.05.22,6.1.41,9.14.63,4.6.32,9.21.66,13.81,1,4.13.3,8.26.57,12.38.96,3.69.34,7.37.82,11.05,1.25,3.74.43,7.51.7,11.21,1.37,2.5.45,4.98,1.27,7.31,2.29,1.95.85,3.17,2.5,3.28,4.86.12,2.6-.9,4.64-3.16,5.56-2.95,1.21-6.08,2.05-9.19,2.77-2.72.63-5.52.92-8.3,1.26-2.45.3-4.91.49-7.37.68-5.59.44-11.19.86-16.78,1.26-4.77.34-9.55.6-14.32.99-3.39.28-6.76.73-10.18,1.23,2.23.2,4.46.4,6.7.6,3.87.34,7.74.68,11.61.99,3.04.24,6.08.41,9.12.66,4.66.39,9.31.82,13.97,1.24,3.4.31,6.8.53,10.18.97,3.35.44,6.71.99,10,1.75,1.86.43,3.73,1.15,5.35,2.13,3.32,2.02,3.26,7.48-.12,9.39-2.02,1.14-4.27,2.11-6.53,2.57-4.32.88-8.72,1.43-13.11,1.95-5.31.63-10.63,1.09-15.95,1.61-3.72.37-7.43.72-11.16,1.25h2.09c14.53,0,29.06.04,43.59-.03,3.61-.02,5.69,2.97,4.95,6.09-.46,1.93-5.19,3.53-5.82,3.53-29.17,0-58.34,0-87.5,0-3.51,0-4.98-1.08-6.16-4.32-.73-2.01.09-3.62,1.31-5.03,2.52-2.92,6.1-3.98,9.65-4.83,4.24-1.02,8.54-1.82,12.86-2.46,4.41-.66,8.87-1,13.3-1.51,3.31-.38,6.61-.89,9.93-1.21,5.22-.5,10.45-.87,15.68-1.33,2.12-.19,4.22-.46,6.36-1.03-.3-.08-.6-.21-.91-.23-4.76-.33-9.53-.63-14.29-.97-4.24-.3-8.47-.6-12.7-.96-4.64-.39-9.29-.78-13.92-1.3-6.04-.67-12.08-1.34-18.08-2.27-2.21-.35-4.4-1.28-6.42-2.28-2.22-1.1-3.55-3.11-3.29-5.67.23-2.3,1.62-4.1,3.74-4.92,2.49-.97,5.1-1.68,7.72-2.26,2.4-.53,4.87-.76,7.31-1.04,3.02-.35,6.04-.65,9.06-.93,5.69-.54,11.38-1.07,17.07-1.57,2.04-.18,4.09-.2,6.14-.34,5.61-.39,11.21-.81,16.87-1.59-.38-.12-.75-.31-1.13-.34-5.92-.43-11.84-.82-17.76-1.25-5.55-.4-11.09-.79-16.63-1.29-5.1-.46-10.21-.94-15.29-1.61-3.55-.47-7.1-1.14-10.58-1.99-1.48-.36-2.96-1.17-4.14-2.15-4.03-3.33-2.72-7.68.84-9.64,2.18-1.2,4.73-1.8,7.18-2.37,2.33-.54,4.75-.72,7.14-1.02,2.74-.34,5.49-.68,8.24-.94,5.74-.54,11.47-1.05,17.21-1.53,2.1-.18,4.2-.21,6.3-.37,4.7-.38,9.4-.81,14.1-1.2,1.66-.14,3.33-.21,5-.31,0-.15,0-.29.01-.44-2.45-.2-4.9-.38-7.34-.6-3.34-.29-6.67-.61-10.01-.9-1.89-.16-3.77-.27-5.66-.43-4.86-.39-9.71-.79-14.56-1.19-1.57-.13-3.14-.21-4.7-.37-4.07-.41-8.18-.64-12.21-1.32-3.47-.59-7.02-1.06-10.22-2.75-2.67-1.41-4.4-4.52-3.64-6.71.82-2.35,2.41-4.1,4.77-4.73,3.49-.94,7.05-1.64,10.61-2.26,3.15-.55,6.34-.88,9.52-1.24,1.72-.19,3.45-.23,5.18-.37,5.01-.41,10.01-.87,15.02-1.26,3.25-.26,6.51-.43,9.77-.67,4.96-.37,9.91-.76,14.86-1.44-1.5-.15-3-.32-4.5-.44-4.71-.37-9.43-.75-14.14-1.07-3.15-.22-6.32-.3-9.47-.55-2.91-.23-5.81-.61-8.71-.88-1.93-.18-3.87-.28-5.81-.45-3.23-.28-6.48-.5-9.69-.92-2.99-.39-5.98-.88-8.9-1.61-1.97-.49-4-1.17-5.67-2.27-3.81-2.52-4.28-7.09-.04-9.68,2.51-1.54,5.63-2.33,8.59-2.85,4.7-.83,9.48-1.16,14.23-1.69,3.89-.43,7.79-.88,11.69-1.21,3.62-.31,7.25-.46,10.87-.73,5.07-.38,10.14-.81,15.21-1.22,1.49-.12,2.99-.24,4.94-.4-.69-.34-.94-.56-1.21-.58-3.19-.23-6.38-.4-9.56-.65-4.86-.39-9.72-.86-14.58-1.23-3.56-.27-7.13-.41-10.69-.69-2.19-.17-4.37-.47-6.55-.73-5-.59-10.03-1.02-14.98-1.87-2.61-.45-5.18-1.43-7.59-2.57-2.1-.99-3.42-2.91-3.24-5.37.17-2.39,1.5-4.31,3.7-5.12,2.83-1.04,5.79-1.87,8.76-2.39,4.12-.73,8.29-1.17,12.46-1.6,4.02-.42,8.05-.66,12.08-1,3.4-.29,6.79-.61,10.18-.9,1.83-.15,3.67-.25,5.51-.38,5.35-.4,10.7-.81,16.05-1.58-2.63-.22-5.26-.43-7.9-.65-3.6-.3-7.21-.64-10.81-.92-3.19-.25-6.39-.41-9.59-.67-3.5-.28-6.99-.63-10.49-.93-2.71-.23-5.45-.33-8.14-.69-4.33-.58-8.65-1.24-12.94-2.04-1.77-.33-3.51-.99-5.16-1.74-2.21-1-3.62-2.82-3.71-5.28-.1-2.51,1.31-4.46,3.49-5.38,2.54-1.07,5.25-1.9,7.97-2.34,5.27-.85,10.58-1.43,15.89-1.97,5.22-.53,10.45-.88,15.68-1.27,4.6-.35,9.2-.63,13.8-.96,4.07-.3,8.13-.63,12.2-.97.28-.02.55-.19.81-.56-1.34-.14-2.67-.29-4.01-.43.02-.59-.11-1.25.1-1.77.35-.87,1.01-1.61,1.39-2.48.47-1.07,1.21-1.59,2.35-1.85,1.78-.41,3.54-.96,5.27-1.56.44-.15.72-.74,1.08-1.12Z"/>
    <path class="cls-4" d="m402.64,307.14c3.67.28,7.34.57,11.01.85,1.68.13,3.36.22,5.03.36,5.01.41,10.01.83,15.02,1.26,3.4.29,6.82.43,10.18.97,4.23.68,8.47,1.45,12.57,2.64,3.36.97,4.41,3,4.44,6.45.02,1.92-.98,3.21-2.42,4.21-2.67,1.85-5.8,2.47-8.92,2.9-5.16.72-10.34,1.33-15.53,1.87-4.16.43-8.34.67-12.5,1.02-6.06.51-12.11,1.08-18.17,1.57-3.36.27-6.72.43-10.08.65-.35.02-.69.08-1.08.39.81.18,1.61.47,2.42.52,3.4.25,6.81.38,10.21.64,3.34.26,6.67.65,10,.94,1.89.16,3.78.23,5.67.36,4.55.31,9.12.52,13.65.98,5.29.54,10.58,1.2,15.83,2.02,2.4.37,4.8,1.07,7.06,1.97,2,.79,3.58,2.21,3.86,4.64.34,3.01-.76,5.33-3.52,6.44-2.58,1.04-5.31,1.84-8.05,2.32-4.27.74-8.59,1.19-12.9,1.65-5.64.6-11.29,1.12-16.94,1.61-2.11.18-4.23.17-6.35.31-6.24.42-12.47.86-18.7,1.32-.82.06-1.62.3-2.47.69.42.08.84.21,1.27.24,4.51.34,9.02.66,13.54.98,2.87.2,5.75.36,8.63.59,4.91.4,9.82.85,14.73,1.29,4.6.41,9.22.65,13.79,1.31,4.22.62,8.4,1.6,12.55,2.61,2.39.58,4.24,2.93,4.41,4.92.26,3-.82,5.16-3.59,6.54-3.02,1.51-6.29,1.99-9.55,2.44-4.51.63-9.04,1.14-13.57,1.58-5.22.5-10.44.88-15.67,1.29-5.6.44-11.2.82-16.79,1.29-2.91.24-5.8.61-8.72,1.22,1.8.22,3.6.51,5.4.64,4.76.35,9.53.63,14.29.96,4.39.31,8.79.57,13.18.99,6.81.65,13.63,1.27,20.42,2.18,3.48.46,7,1.17,10.28,2.38,3.96,1.46,4.61,3.39,4.31,6.99-.14,1.72-1.17,3.12-2.65,3.73-2.75,1.13-5.61,2.05-8.5,2.78-2.43.62-4.95.91-7.44,1.22-2.61.32-5.25.5-7.87.73-5.97.53-11.94,1.1-17.91,1.57-3.4.27-6.82.35-10.23.61-4.55.36-9.09.82-13.63,1.24,0,.16,0,.33.01.49,4.22.28,8.45.51,12.67.84,5.07.39,10.13.87,15.2,1.28,2.92.24,5.86.34,8.78.64,4.67.47,9.33.98,13.98,1.58,3.5.45,7.01.96,10.46,1.68,1.62.34,3.21,1.06,4.66,1.89,3.52,2,3.46,7.93-.08,9.7-2.31,1.16-4.84,2.07-7.37,2.59-4.24.86-8.56,1.36-12.85,1.92-2.44.32-4.89.49-7.34.7-4.85.42-9.7.85-14.55,1.24-1.94.16-3.89.21-5.83.35-5.39.41-10.77.85-16.16,1.25-.93.07-1.86,0-2.85.39.81.19,1.62.49,2.44.56,6.56.56,13.13,1.01,19.69,1.61,4.78.44,9.56,1,14.32,1.6,6.34.81,12.69,1.52,18.97,2.64,3.32.59,6.57,1.8,9.72,3.07,2.26.91,3.94,2.63,4.08,5.38.16,3.17-2.06,5.79-5.23,6.01-.37.03-.74,0-1.11,0-29.22,0-58.44,0-87.66.02-2.12,0-3.82-.61-5.01-2.44-1.81-2.78.03-6.42,2.99-7.07.62-.13,1.26-.23,1.89-.23,11.98-.01,23.97,0,35.95,0,.99.09,1.97.18,2.96.28.01-.21.02-.43.03-.64h-2.98c-4.8-.43-9.61-.8-14.41-1.32-4.94-.54-9.88-1.13-14.77-1.94-2.33-.39-4.61-1.23-6.84-2.05-2.18-.81-3.4-2.62-4.09-4.77-.5-1.56.82-4.62,2.79-5.62,2.06-1.06,4.3-1.94,6.57-2.37,4.52-.86,9.1-1.44,13.67-1.97,5.36-.62,10.73-1.09,16.1-1.55,3.55-.3,7.12-.44,10.68-.7,2.57-.19,5.13-.46,7.69-.66,4.24-.33,8.48-.64,12.71-1.15-2.5-.23-5-.49-7.5-.68-6.14-.46-12.28-.86-18.42-1.34-4.92-.38-9.83-.85-14.74-1.28-3.6-.31-7.19-.61-10.79-.95-1.5-.15-3.01-.32-4.47-.65-3.1-.68-6.18-1.46-9.27-2.23-.45-.11-.88-.36-1.3-.59-2.31-1.25-3.86-3.18-3.7-5.8.15-2.53,1.81-4.49,4.2-5.28,3-.99,6.11-1.68,9.22-2.27,3.43-.65,6.91-1.05,10.37-1.52,1.4-.19,2.81-.32,4.23-.43,5.81-.43,11.62-.85,17.43-1.26,3.3-.23,6.61-.39,9.9-.66,4.54-.38,9.08-.85,13.62-1.28.12-.01.24-.12.59-.31-5.34-.33-10.43-.59-15.52-.98-4.17-.32-8.33-.81-12.49-1.19-1.78-.16-3.57-.23-5.35-.38-3.03-.25-6.06-.52-9.09-.78-3.08-.27-6.17-.41-9.22-.84-3.26-.46-6.5-1.1-9.7-1.84-1.66-.38-3.3-1-4.83-1.77-2.06-1.04-3.35-2.9-3.36-5.17,0-2.36,1.3-4.44,3.49-5.24,3.22-1.19,6.58-2.19,9.96-2.7,6.26-.95,12.58-1.55,18.89-2.17,3.93-.39,7.88-.51,11.81-.81,4.98-.38,9.95-.82,14.93-1.23,2.55-.21,5.1-.42,7.65-.66.47-.04.92-.25,1.32-.61-4.82-.33-9.64-.65-14.46-.99-5.71-.41-11.41-.84-17.11-1.28-3.92-.3-7.85-.51-11.75-1-5.07-.63-10.13-1.44-15.16-2.31-1.79-.31-3.54-.95-5.25-1.59-2.22-.84-3.56-2.58-4.3-4.78-.52-1.55.73-4.62,2.69-5.67,1.98-1.06,4.14-1.95,6.32-2.4,4.09-.84,8.24-1.36,12.38-1.89,2.7-.35,5.42-.45,8.13-.72,4.03-.4,8.04-.88,12.07-1.24,2.15-.2,4.32-.19,6.48-.33,6.34-.42,12.67-.85,19-1.3.93-.07,1.85-.3,2.79-.63-3.22-.21-6.45-.38-9.67-.64-2.97-.24-5.94-.6-8.91-.87-1.67-.16-3.36-.24-5.03-.37-5.33-.42-10.65-.83-15.98-1.28-4.77-.4-9.57-.66-14.31-1.35-3.87-.56-7.72-1.45-11.45-2.62-2.44-.76-4.16-2.81-4.55-5.42-.34-2.28.91-4.25,2.82-5.28,2.09-1.13,4.43-2.09,6.77-2.45,6.16-.96,12.37-1.65,18.57-2.27,5.59-.56,11.2-.88,16.8-1.32,5.27-.41,10.55-.81,15.82-1.26,3.05-.26,6.1-.63,9.12-1.18-2.4-.14-4.81-.22-7.21-.42-3.03-.25-6.05-.62-9.08-.91-1.52-.14-3.04-.2-4.56-.32-5.5-.42-11-.86-16.5-1.28-.79-.06-1.59-.06-2.38-.08-.36-.32-.71-.64-1.35-1.22,2.75-.89,5.28-1.72,7.81-2.54.54-.17,1.36-.18,1.57-.54.82-1.44,1.46-2.99,2.16-4.49Z"/>
    <path class="cls-2" d="m319.85,386.46c-3.82-1.17-7.66-2.26-11.45-3.51-13.28-4.4-26.54-8.86-39.82-13.28-.54-.18-1.12-.21-1.79-.07,3.96,2.89,7.94,5.74,11.88,8.66,12.13,8.99,24.26,18,36.36,27.03,1.14.85,2.09,1.95,3.2,2.85,2.1,1.69,2.26,3.99,1.96,6.34-.29,2.35-3.65,4.18-6.23,3.08-2.99-1.28-5.92-2.88-8.55-4.78-13.14-9.5-26.18-19.15-39.25-28.75-1.62-1.19-3.23-2.4-4.87-3.57-.39-.28-.87-.44-1.51-.38,2.75,3.78,5.53,7.55,8.25,11.35,8.7,12.15,17.42,24.28,26,36.51,1.42,2.02,2.45,4.42,3.22,6.78.8,2.46-.08,4.31-1.93,5.48-1.96,1.23-4.09,1.23-6-.43-1.78-1.56-3.47-3.3-4.87-5.2-7.89-10.71-15.69-21.48-23.5-32.24-3.73-5.14-7.41-10.31-11.11-15.46-.08-.11-.23-.16-.57-.38.41,1.38.73,2.54,1.11,3.68,3.33,10.03,6.71,20.04,9.98,30.09,2.26,6.96,4.49,13.93,6.5,20.97.89,3.09,1.38,6.32,1.74,9.52.26,2.33-1.16,4.12-3.27,4.88-1.95.7-4.41.19-5.55-1.71-1.53-2.57-2.91-5.31-3.85-8.14-4.34-13.02-8.53-26.1-12.74-39.16-1.67-5.18-3.27-10.37-4.9-15.56-.06-.19-.18-.36-.53-.54,0,.52,0,1.04,0,1.56.02,16.92.07,33.83.02,50.75-.01,4.1-.36,8.2-.63,12.3-.19,2.8-1.82,5.01-3.97,5.63-2.6.75-5.32-.46-6.17-3.11-.68-2.12-1.2-4.39-1.25-6.6-.2-9.75-.23-19.51-.26-29.26-.04-10.5,0-20.99,0-31.54-.77,2.14-1.62,4.26-2.3,6.43-1.05,3.31-1.95,6.67-2.98,9.99-1.97,6.35-3.89,12.72-6.01,19.01-2.92,8.65-5.97,17.26-9.05,25.87-.7,1.95-2.05,3.35-4.08,4.18-3,1.23-6.49-2.06-6.53-4.58-.02-1.35.02-2.75.35-4.04.91-3.56,1.95-7.09,3.02-10.6,1.92-6.33,3.85-12.66,5.88-18.96,1.44-4.47,3.06-8.89,4.55-13.35,1.88-5.64,3.72-11.29,5.57-16.94.05-.14,0-.31,0-.87-.87,1.19-1.55,2.09-2.2,3-9.54,13.31-19.04,26.65-28.65,39.9-2.45,3.38-5.15,6.6-7.98,9.68-2.52,2.75-5.69,2.78-7.93.44-1.52-1.6-1.78-3.57-.99-5.47.89-2.13,1.97-4.24,3.3-6.13,7.31-10.41,14.7-20.76,22.1-31.1,3.73-5.22,7.54-10.38,11.3-15.57.31-.43.55-.91.55-1.61-.52.38-1.03.76-1.55,1.14-13.26,9.79-26.5,19.61-39.8,29.34-3.16,2.31-6.47,4.44-9.83,6.44-1.31.78-2.96,1.3-4.48,1.33-3.76.09-6.15-4.11-4.22-7.32.86-1.42,2-2.78,3.31-3.8,7.23-5.64,14.48-11.25,21.84-16.7,8.94-6.63,17.99-13.1,27-19.64.25-.18.47-.39.71-.58-.05-.13-.1-.25-.15-.38-1.45.43-2.92.82-4.35,1.3-11.48,3.84-22.95,7.73-34.44,11.52-5.61,1.85-11.27,3.58-16.94,5.24-2.25.66-4.58,1.19-6.91,1.41-2.46.24-4.65-1.62-5.48-4.13-.52-1.58.42-4.22,2.33-5.31,2.42-1.38,4.98-2.59,7.6-3.54,6.19-2.23,12.43-4.33,18.68-6.36,12.25-3.99,24.53-7.9,36.8-11.84.16-.08.33-.17.49-.25-.15,0-.3,0-.44,0-2.12-.04-4.25-.08-6.37-.12-.18-1.82-.27-3.65-.55-5.45-.22-1.37-.69-2.69-1.04-4.03,6.19.01,12.38-.08,18.57.08,4.13.11,8.26.53,12.37.95,2.6.26,4.19,2.36,4.47,4.96.2,1.83.99,3.53,2.43,4.84,1.14,1.04,2.15,2.13,3.67,2.81,1.91.87,3.79.91,5.77.93,1.89.01,3.51-.83,4.95-1.74,1.32-.84,2.29-2.28,3.27-3.57.55-.73.81-1.69,1.19-2.54,2.67-1.53,5.54-1.3,8.29-.54,5.28,1.46,10.51,3.12,15.74,4.77,7.15,2.26,14.27,4.58,21.4,6.88,1.39.49,2.78,1,4.18,1.47,4.45,1.52,8.89,3.04,13.34,4.53,4.65,1.55,9.33,3.04,13.97,4.6,1.6.54,2.07,1.74,1.71,3.45-.24,1.18-.23,2.41-.42,3.61-.17,1.08-.44,2.14-.67,3.2Z"/>
    <path class="cls-11" d="m184.66,233.2c.82-3.52,3.01-6.06,5.8-8.2.27-.2.38-.6.57-.91,3.89.34,7.81.47,11.65,1.06,4.57.7,9.11,1.69,13.62,2.74,2.81.65,4.59,2.9,4.74,5.49.15,2.59-1.19,4.97-3.94,5.9-3.18,1.08-6.47,1.94-9.77,2.52-4.19.74-8.43,1.17-12.67,1.59-3.37.34-6.75.45-10.13.68-6.07.43-12.15.86-18.22,1.31-4.51.34-9.01.71-13.64,1.08.25.17.42.39.61.41,3.46.24,6.93.41,10.38.68,3.4.27,6.8.64,10.2.94,1.73.15,3.46.24,5.19.36,4.67.31,9.35.53,14.01.97,5.55.53,11.1,1.16,16.62,1.95,2.42.35,4.82,1.04,7.11,1.88,2.97,1.09,4.17,3.05,4.14,6.02-.03,2.91-1.79,4.68-4.28,5.44-3.44,1.06-6.99,1.86-10.55,2.42-4.18.66-8.41,1-12.63,1.38-4.2.37-8.42.62-12.63.91-.91-1.2-1.69-2.54-2.77-3.57-1.66-1.59-3.21-3.19-3.91-5.45,2.15-.17,4.3-.34,6.44-.5,3.05-.23,6.11-.46,9.19-1.01-.32-.08-.65-.21-.97-.24-5.04-.34-10.07-.65-15.11-.99-4.39-.3-8.79-.62-13.18-.96-3.98-.3-7.98-.53-11.95-.98-4.99-.56-9.96-1.26-14.92-2.02-2-.31-3.95-.95-5.93-1.44-.2-.05-.4-.13-.6-.21-2.98-1.16-4.88-3.55-4.85-6.06.03-2.29,2.09-5.01,4.93-5.77,3.59-.97,7.26-1.62,10.93-2.24,2.91-.5,5.85-.84,8.8-1.1,5.09-.45,10.19-.77,15.29-1.17,3.76-.29,7.52-.65,11.29-.93,3.51-.26,7.02-.42,10.53-.67,2.12-.15,4.23-.38,6.32-.87-1.91-.15-3.81-.3-5.72-.45Z"/>
    <path class="cls-2" d="m436.05,259.72c6.53.86,13.07,1.71,19.27,4.11,2.12.82,3.93,2.09,5.05,4.16.8,1.48.76,2.92-.22,4.33-1.25,1.8-3.05,2.85-5.1,3.26-3.7.75-7.43,1.41-11.18,1.88-5.13.65-10.27,1.16-15.42,1.59-3.87.33-7.75.41-11.62.65-5.19.31-10.38.67-15.57.99-2.36.15-4.73.25-7.09.38,0,.14,0,.28,0,.42,2.25.26,4.49.59,6.74.75,5.08.37,10.17.62,15.25.99,5.14.37,10.28.74,15.4,1.26,5.26.54,10.51,1.16,15.74,1.94,3.07.45,6.16,1.01,9.09,1.98,3.49,1.15,4.49,2.99,4.52,6.56.02,1.92-1.03,3.2-2.47,4.17-2.85,1.92-6.17,2.43-9.47,2.82-5.34.64-10.7,1.12-16.06,1.64-2.23.22-4.47.39-6.71.58-.3-.66-.61-1.3-.88-1.97-.59-1.45-3.07-1.88-1.97-4.27-.65.09-1.1.28-1.42.15-.29-.11-.45-.58-.67-.89,1.03-.64.46-1.59.49-2.43,2.09-.18,4.18-.36,6.27-.54l.05-.17c-.51-.12-1.01-.3-1.53-.34-4.98-.33-9.96-.59-14.94-.98-4.56-.35-9.11-.83-13.67-1.25-4.54-.42-9.08-.78-13.6-1.28-4.1-.45-8.22-.9-12.27-1.66-2.21-.41-4.35-1.36-6.44-2.26-1.81-.78-2.84-2.47-3.27-4.27-.5-2.14.64-3.91,2.21-5.28,2.38-2.09,5.43-2.62,8.4-3.02,5.25-.7,10.54-1.19,15.82-1.63,6.06-.5,12.12-.87,18.19-1.28,5.09-.34,10.18-.62,15.26-.97,2.35-.16,4.69-.41,7.03-.64.33-.03.65-.18,1.36-.39-1.1-.24-1.79-.4-2.49-.55-.25-.38-.42-.95-.77-1.12-1.73-.83-3.46-1.79-5.3-2.25-1.48-.37-2.37-.93-2.63-2.47,2.66-.84,5.56.17,8.12-1.15.08-.04.21.02.31,0,2.07-.16,4.15-.25,6.21-.53.71-.1,1.35-.68,2.01-1.04Zm-3.59,9.24c-.18-.15-.27-.26-.39-.3-.06-.02-.25.09-.24.11.03.12.07.3.15.32.11.03.25-.06.48-.13Z"/>
    <path class="cls-11" d="m167.79,322.29c-4.87.3-9.73.6-14.6.89l-.02.36c.69.13,1.38.32,2.08.38,3.92.34,7.83.68,11.76.95,3.73.25,7.47.37,11.21.62,4.13.28,8.26.6,12.38.97,4.18.38,8.38.7,12.53,1.29,4.13.59,8.23,1.45,12.33,2.27.81.16,1.59.58,2.33.99,2.3,1.28,3.43,3.17,3.17,5.89-.23,2.45-1.59,4.14-3.73,4.85-3.19,1.06-6.48,1.89-9.79,2.47-4.21.74-8.49,1.16-12.74,1.64-1.87.21-3.78.18-5.66.34-3.24.28-6.47.66-9.71.91-2.25.17-4.51.2-6.77.29.13-1.44-.29-2.44-1.68-3.25-1.34-.77-2.45-1.98-3.57-3.08-.61-.6-.82-1.26.39-1.61.33-.1.49-.75.72-1.15,7.09-.62,14.18-1.24,21.28-1.86.02-.09.04-.17.05-.26-1.49-.17-2.97-.37-4.46-.49-5.38-.43-10.76-.84-16.14-1.24-1.99-.15-3.99-.22-5.98-.38-5-.4-10.01-.77-15-1.26-4.72-.46-9.46-.89-14.14-1.65-2.73-.45-5.39-1.43-8-2.38-2.03-.74-3.06-2.56-3.7-4.51-.56-1.71.91-4.79,3.04-5.81,2.2-1.05,4.57-2.02,6.96-2.36,6.71-.97,13.46-1.65,20.21-2.34,4.75-.49,9.52-.83,14.28-1.23,1.09,1.2,2.16,2.4,3.27,3.58.25.26.66.37.89.64,1.37,1.63,3.79,2.39,4.12,4.89-2.22.14-4.43.28-6.65.42-.22.07-.44.14-.67.21Z"/>
    <path class="cls-11" d="m174.16,260.81c.7,2.25,2.25,3.86,3.91,5.45,1.08,1.03,1.86,2.37,2.77,3.57-1.27.13-2.54.26-3.81.39-.53.07-1.07.15-1.6.22-7.32.52-14.64,1.04-21.96,1.55,0,.16,0,.31,0,.47,4.33.29,8.66.54,12.98.88,4.82.38,9.63.87,14.45,1.25,3.42.27,6.86.3,10.26.69,7.47.86,14.93,1.84,22.37,2.89,1.38.19,2.75.8,4.02,1.43,1.93.97,3.26,2.43,3.43,4.78.2,2.71-.91,4.62-3.24,5.85-3.48,1.85-7.33,2.33-11.15,2.81-5,.64-10.03,1.13-15.05,1.65-2.4.25-4.81.39-7.21.58,0-1.61-.2-2.99-1.98-3.84-.96-.46-1.89-1.56-2.23-2.57-.44-1.31-1.1-1.56-2.3-1.57-.48,0-.96-.55-1.44-.85,3.54-.35,7.09-.69,10.63-1.05.92-.09,1.83-.22,2.74-.53-3.03-.23-6.06-.44-9.08-.71-3.23-.28-6.46-.65-9.69-.91-2.2-.18-4.41-.2-6.61-.36-4.03-.3-8.06-.64-12.09-.98-3.68-.3-7.39-.38-11.01-.98-5.01-.83-10.2-.98-14.87-3.23-1.22-.59-2.42-1.64-3.13-2.78-1.95-3.13-.54-7.07,3.31-8.33,3.94-1.29,8.07-2.14,12.19-2.72,6.11-.85,12.28-1.32,18.43-1.9,2.2-.21,4.42-.24,6.62-.39,3.45-.24,6.9-.51,10.35-.77Z"/>
    <path class="cls-1" d="m428.02,242.77c-1.16-.21-2.32-.53-3.49-.6-4.67-.26-9.35-.41-14.02-.65-3.88-.19-7.76-.39-11.64-.66-5.34-.38-10.69-.75-16.02-1.28-3.8-.38-7.61-.86-11.36-1.62-2.18-.44-4.48-1.16-6.29-2.39-3.94-2.68-4-6.55-.23-9.53,2.74-2.17,6.2-2.72,9.53-3.24,6.37-1,12.79-1.73,19.18-2.58,3.07-.41,6.14-.85,9.21-1.26.51-.07,1.03-.04,1.55-.05,1.95-.04,3.9-.13,5.84-.07.55.02,1.19.35,1.63.73,1.17.99,2.23,2.12,3.4,3.12.32.28.88.3,1.33.4,1.63.33,3.27.59,4.89.97,1.62.37,3.23.82,4.83,1.31.31.09.52.52.77.79-.21.04-.42.08-.64.11-.32.09-.63.18-.95.27-11.47,1.15-22.95,2.31-34.42,3.46-.01.15-.02.3-.03.45.47.1.95.25,1.42.28,6.01.34,12.01.64,18.02.98,4.94.28,9.89.56,14.82.9,5.57.39,11.15.73,16.7,1.32,4.26.46,8.48,1.26,12.7,1.96.72.12,1.41.46,2.08.76,3.08,1.33,4.19,3.03,4.01,6.58-.14,2.77-2.1,4.08-4.45,4.96-.13-1.13.33-1.83,1.33-2.43.86-.51,1.51-1.38,2.55-2.38-2.69-.55-4.44.16-5.69,1.81-.78,1.03-1.5,1.13-2.69.93-1.17-.2-2.42.12-3.64.14-.61.01-1.66.04-1.77-.23-.77-1.98-2.55-1.26-3.91-1.6-.6-.15-1.26-.06-1.89-.13-4.22-.5-8.45-1.01-12.67-1.51Z"/>
    <path class="cls-2" d="m428.02,242.77c4.22.51,8.45,1.02,12.67,1.51.63.07,1.29-.02,1.89.13,1.36.34,3.14-.38,3.91,1.6.1.27,1.16.24,1.77.23,1.22-.02,2.47-.34,3.64-.14,1.19.2,1.91.1,2.69-.93,1.25-1.65,3-2.36,5.69-1.81-1.04,1-1.69,1.87-2.55,2.38-1.01.6-1.46,1.31-1.33,2.43-1.26.4-2.52.79-3.78,1.19-.79,0-1.74.07-2.79.29-.63.13-1.19.29-1.7.46-1.37.23-2.75.45-4.12.68-.22.08-.44.15-.66.23-5.38.54-10.75,1.12-16.13,1.61-2.36.21-4.74.18-7.1.36-5.13.38-10.25.85-15.38,1.25-3.14.24-6.28.4-9.42.64-.77.06-1.52.29-2.55.49,14.61,1.47,28.94,2.92,43.27,4.36-.67.36-1.31.94-2.01,1.04-2.06.28-4.14.37-6.21.53-.1,0-.23-.05-.31,0-2.56,1.32-5.46.31-8.12,1.15.26,1.55,1.14,2.1,2.63,2.47,1.84.46,3.57,1.42,5.3,2.25.35.17.52.74.77,1.12-4.12-.36-8.24-.74-12.37-1.09-2.36-.2-4.72-.31-7.08-.52-3.41-.31-6.82-.7-10.23-1.01-3.71-.33-7.45-.48-11.14-.93-4.85-.58-9.69-1.24-14.48-2.14-2.5-.47-4.99-1.31-7.31-2.38-2.24-1.03-3.75-4.08-3.2-5.87.64-2.08,1.84-3.95,3.99-4.64,3.04-.98,6.16-1.8,9.3-2.39,3.28-.61,6.63-.92,9.96-1.27,3.72-.39,7.46-.71,11.19-1,4.97-.39,9.95-.73,14.93-1.09,2.31-.17,4.62-.33,6.93-.49,3.16-.23,6.31-.46,9.47-.69Z"/>
    <path class="cls-1" d="m427.13,226.12c-.25-.27-.46-.69-.77-.79-1.59-.49-3.2-.93-4.83-1.31-1.62-.37-3.26-.64-4.89-.97-.46-.09-1.01-.12-1.33-.4-1.17-1-2.22-2.13-3.4-3.12-.44-.37-1.07-.71-1.63-.73-1.94-.06-3.89.04-5.84.07-.72-.06-1.44-.19-2.17-.19-9.76-.04-19.52.01-29.27-.14-2.45-.04-4.93-.56-7.31-1.2-2.39-.63-3.5-2.59-3.38-5.1,1.53.3,3.13,1.04,4.58.81,3.47-.55,6.93-1.37,10.29-2.4,6.4-1.95,12.7-4.23,19.11-6.13,2.21-.65,4.63-.61,6.96-.82.2-.02.43.37.65.57-4.59,1.52-9.18,3.03-13.77,4.55.02.11.03.21.05.32,3.84,0,7.68,0,11.52,0,14.25-.02,28.5-.08,42.75-.02,3.62.01,7.25.36,10.86.61,2.82.19,4.93,1.78,5.49,4.02.68,2.71-.29,5.03-2.91,6.61-3.03,1.83-6.48,2.45-9.9,2.99-5.68.9-11.39,1.63-17.1,2.41-1.25.17-2.52.24-3.78.36Z"/>
    <path class="cls-3" d="m358.26,205.93c2.43-.01,4.33-.98,5.83-2.95,5.39-7.11,10.86-14.17,16.26-21.27,2.35-3.1,4.61-6.26,6.92-9.4,1.17-1.59,2.16-3.36,3.58-4.68.99-.93,2.56-1.24,3.88-1.83-2.17,2.9-4.4,5.76-6.51,8.71-2.98,4.17-5.88,8.4-8.81,12.6-.05.01-.1.02-.14.05-.02.01,0,.07,0,.11l.11-.18c.32-.13.69-.2.97-.4,7.71-5.61,15.38-11.29,23.13-16.85,9.12-6.54,18.3-12.98,27.48-19.43.86-.6,1.85-1.04,2.83-1.42,2.38-.93,4.94-.23,6.3,1.64,1.39,1.92,1.36,4.48-.32,6.48-1.15,1.37-2.44,2.68-3.87,3.75-8.16,6.17-16.36,12.28-24.6,18.35-3.25,2.39-6.63,4.61-9.95,6.91-.22-.98-1.08-1.85-1.64-.91-.72,1.21-1.81,1.44-2.76,2.1-4.38,3.01-8.7,6.11-13.08,9.11-5.13,3.51-10.29,6.98-15.47,10.42-2.32,1.54-4.8,2.63-7.71,1.91-.81-.94-1.62-1.88-2.43-2.83Z"/>
    <path class="cls-1" d="m360.69,208.76c2.9.72,5.39-.37,7.71-1.91,5.18-3.44,10.34-6.91,15.47-10.42,4.39-3,8.7-6.11,13.08-9.11.95-.65,2.04-.89,2.76-2.1.56-.94,1.42-.07,1.64.91-4.63,3.42-9.26,6.83-13.89,10.25-.38.28-.71.61-1.06.92-.01.07-.03.13-.05.19,0-.07,0-.14.01-.22,1.46-.39,2.94-.7,4.38-1.17,10.32-3.4,20.6-6.91,30.94-10.23,8.14-2.61,16.34-5.05,24.54-7.45,1.54-.45,3.24-.6,4.85-.56,2.49.07,4.02,1.41,4.61,3.6.58,2.15-.14,4.48-2.07,5.69-1.69,1.06-3.51,2-5.4,2.65-8.24,2.85-16.52,5.61-24.81,8.34-5.77,1.91-11.58,3.73-17.37,5.57-.7.22-1.42.38-2.13.57-.22-.2-.45-.59-.65-.57-2.33.22-4.75.17-6.96.82-6.41,1.9-12.71,4.18-19.11,6.13-3.37,1.03-6.82,1.85-10.29,2.4-1.45.23-3.05-.51-4.58-.81-.54-1.17-1.09-2.33-1.63-3.5Z"/>
    <path class="cls-11" d="m168.43,338.32c-.24.4-.4,1.06-.72,1.15-1.2.35-.99,1.01-.39,1.61,1.12,1.1,2.23,2.31,3.57,3.08,1.39.8,1.81,1.81,1.68,3.25-.33.06-.67.12-1,.18,0,.06.01.12.02.17h14.03c.36,1.34.82,2.67,1.04,4.03.29,1.8.38,3.63.55,5.45-4.87.06-9.74.17-14.62.17-13.04,0-26.07,0-39.11-.12-2.22-.02-4.46-.57-6.63-1.11-2.99-.76-5.36-4.71-2.91-8.2,1.98-2.82,4.84-4.17,7.91-4.88,4.8-1.11,9.68-1.94,14.56-2.58,6.18-.81,12.39-1.32,18.59-1.95,1.14-.12,2.28-.18,3.43-.26Z"/>
    <path class="cls-11" d="m176.39,286.44c.48.3.96.85,1.44.85,1.2,0,1.86.26,2.3,1.57.34,1.01,1.27,2.11,2.23,2.57,1.78.85,1.98,2.23,1.98,3.84-.43,0-.85,0-1.28,0-.59-.92-1.12-.95-1.58.1-1.77.18-3.55.38-5.32.54-3.8.33-7.6.68-11.4.95-3.57.26-7.15.43-10.81.91.27.12.53.33.8.35,4.76.35,9.52.65,14.28,1.02,1.92.15,3.84.44,5.75.66-.03,1.07-.83.91-1.49.89-.87-.03-1.33.29-1.87,1.06-.89,1.28-1.94,2.74-3.28,3.32-1.79.78-1.77,2.07-1.95,3.48-4.97-.39-9.94-.78-14.92-1.16-2.89-.22-5.82-.21-8.67-.69-5.6-.95-11.4-1.05-16.66-3.58-2.02-.97-3.11-2.69-3.63-4.75-.47-1.84,1.19-4.86,3.41-5.79,2.4-1.01,4.94-1.76,7.49-2.32,2.58-.58,5.24-.85,7.88-1.15,3.02-.34,6.06-.56,9.09-.84,3.44-.31,6.88-.66,10.32-.92,3.4-.26,6.8-.44,10.21-.66,1.15-.07,2.29-.17,3.44-.26.57,1.23.95,1.23,1.9,0,.11,0,.22,0,.33,0Zm4.71,6.91c-.2-.18-.32-.33-.48-.41-.06-.03-.31.2-.29.24.07.16.19.32.33.42.05.03.22-.12.44-.25Z"/>
    <path class="cls-1" d="m286.76,347.27c-3.68-.26-7.38-.44-11.05-.8-6.77-.67-13.54-1.31-20.28-2.23-3.25-.45-6.49-1.31-9.61-2.36-2.49-.84-4.12-2.77-4.21-5.59-.08-2.6,1.83-5.12,5.03-5.99,3.87-1.05,7.82-1.9,11.79-2.43,5.03-.67,10.11-.97,15.17-1.38,5.74-.46,11.48-.85,17.22-1.29.67-.05,1.34-.16,2.01-.24.41.72.97,1.4,1.19,2.17.41,1.41,1.35,2.11,2.59,2.71.7.33,1.33.95,1.79,1.59.5.71.77,1.58,1.13,2.39-1.43.2-2.86.48-4.3.59-7.52.56-15.03,1.08-22.55,1.62-.01.18-.02.37-.03.55,7.05.58,14.11,1.17,21.16,1.75-.25.9-.24,2.03-.8,2.66-1.21,1.36-2.76,2.42-4.09,3.7-.8.77-1.45,1.71-2.16,2.58Z"/>
    <path class="cls-11" d="m166.2,308.57c.18-1.41.16-2.7,1.95-3.48,1.34-.58,2.39-2.05,3.28-3.32.54-.77,1-1.09,1.87-1.06.66.02,1.46.18,1.49-.89,3.87.28,7.74.57,11.62.84,1.99.14,4,.16,5.98.4,6.78.8,13.56,1.6,20.31,2.56,1.69.24,3.37.93,4.93,1.68,2.43,1.16,3.55,3.15,3.34,5.94-.18,2.37-1.48,3.97-3.47,4.71-2.94,1.09-5.98,2.1-9.07,2.53-6.22.88-12.5,1.38-18.77,1.97-3.96.38-7.94.64-11.91.96-.88.07-1.76.17-2.65.25-.33-2.5-2.75-3.26-4.12-4.89-.23-.27-.64-.38-.89-.64-1.11-1.18-2.18-2.39-3.27-3.58,7.37-.53,14.75-1.05,22.12-1.58v-.49c-6.41-.54-12.83-1.08-19.25-1.62-.09-.12-.18-.24-.26-.35-.13.13-.25.27-.38.4-.95-.11-1.91-.22-2.86-.34Z"/>
    <path class="cls-1" d="m299.54,333.83c-.37-.8-.63-1.68-1.13-2.39-.45-.64-1.09-1.25-1.79-1.59-1.24-.59-2.19-1.3-2.59-2.71-.22-.77-.78-1.45-1.19-2.17,5.69-.46,11.38-.92,17.08-1.38,0-.07,0-.14,0-.21-8.65-.72-17.31-1.43-25.96-2.15-.35-2.74,1.84-3.89,3.56-4.97,1.69-1.05,2.05-2.37,2.17-4.04,3.75.22,7.5.39,11.25.68,5.51.43,11.03.89,16.53,1.46,4.24.44,8.49.93,12.68,1.68,2.36.42,4.69,1.22,6.89,2.19,2.19.96,3.35,2.84,3.28,5.35-.06,2.52-1.38,4.43-3.58,5.16-3.59,1.2-7.31,2.09-11.04,2.75-3.37.6-6.82.73-10.25,1.03-5.3.45-10.6.86-15.89,1.29Z"/>
    <path class="cls-11" d="m421.72,294.75c-.03.84.55,1.8-.49,2.43.22.31.38.77.67.89.33.13.78-.06,1.42-.15-1.11,2.39,1.38,2.82,1.97,4.27.27.67.59,1.31.88,1.97-10.43.6-20.85,1.2-31.28,1.8,0,.14,0,.27,0,.41,2.58.26,5.17.51,7.75.77-.7,1.51-1.34,3.06-2.16,4.49-.21.36-1.03.36-1.57.54-2.53.82-5.06,1.64-7.81,2.54.63.57.99.9,1.35,1.22-2.3-.2-4.6-.3-6.89-.6-4.26-.57-8.52-1.12-12.74-1.94-2.41-.47-4.8-1.27-7.06-2.24-2.25-.97-3.55-3.02-3.46-5.42.09-2.46,1.59-4.47,3.93-5.29,2.8-.98,5.72-1.72,8.65-2.22,3.56-.61,7.18-.9,10.78-1.28,1.72-.18,3.46-.22,5.19-.33,3.42-.22,6.84-.47,10.27-.65,4.47-.24,8.95-.41,13.42-.66,2.4-.13,4.79-.35,7.19-.53Z"/>
    <path class="cls-1" d="m287.73,365.61c-7.13-2.3-14.26-4.62-21.4-6.88-5.23-1.65-10.46-3.31-15.74-4.77-2.75-.76-5.62-.99-8.29.54-.16-3.32,2.35-5.93,5.93-6.03,8.74-.25,17.48-.51,26.23-.62,4.88-.06,9.76.15,14.65.24,1.33,0,2.66,0,3.98,0,1.99.02,3.98.05,5.97.05,5.29,0,10.58-.02,15.88.03.67,0,1.84.19,1.92.51.27,1.07.52,2.39.12,3.34-.91,2.17-.86,3.96.68,5.64-9.75-.01-19.51,0-29.26-.05-5.78-.03-11.55-.14-17.33-.21-.32.04-.64.08-.97.13,0,.11.02.23.02.34l.82.1c6.04,1.96,12.08,3.93,18.12,5.89-.45.59-.89,1.17-1.34,1.76Z"/>
    <path class="cls-1" d="m317.66,357.64c-1.55-1.68-1.59-3.47-.68-5.64.4-.95.15-2.27-.12-3.34-.08-.32-1.25-.5-1.92-.51-5.29-.04-10.58-.02-15.88-.03-1.99,0-3.98-.04-5.97-.05-1.34-.2-2.68-.4-4.01-.61-.77-.07-1.54-.13-2.31-.2.72-.86,1.36-1.8,2.16-2.58,1.32-1.27,2.87-2.33,4.09-3.7.56-.63.55-1.76.8-2.66,3.5.39,7,.81,10.51,1.17,2.63.26,5.28.29,7.89.68,6.29.96,12.58,1.94,18.81,3.18,2.59.52,5.11,1.54,7.2,3.38,2.1,1.85,2.46,4.22,1.9,6.66-.52,2.25-2.51,3.31-4.64,3.56-3.55.41-7.12.58-10.69.72-2.38.1-4.76-.03-7.14-.05Z"/>
    <path class="cls-2" d="m287.73,365.61c.45-.59.9-1.17,1.34-1.76,7.9,2.53,15.81,5,23.68,7.6,5.15,1.7,10.25,3.55,15.35,5.42,1.53.56,2.98,1.36,4.42,2.13,2.66,1.42,3.17,4.86,2.34,6.68-1.03,2.27-4.08,3.78-6.65,3.13-2.8-.71-5.57-1.56-8.36-2.34.23-1.07.51-2.13.67-3.2.18-1.2.17-2.43.42-3.61.35-1.7-.12-2.91-1.71-3.45-4.65-1.57-9.32-3.05-13.97-4.6-4.46-1.49-8.9-3.01-13.34-4.53-1.4-.48-2.78-.98-4.18-1.47Z"/>
  </g>
  <path class="cls-11" d="m101.11,102.37c.34-2.28-.61-3.97-2.4-5.39-3.68-2.9-7.22-5.99-11-8.76-6.31-4.63-12.75-9.08-19.15-13.6-1.24-.87-.8-1.93-.41-2.99,3.86,2.71,7.71,5.42,11.57,8.11.62.43,1.27.8,1.91,1.2.09.05.18.1.27.15,0-.05,0-.09,0-.14-.1,0-.2.02-.3.03-.21-.47-.34-1-.64-1.41-8.73-11.55-17.53-23.05-26.2-34.64-3.76-5.03-7.31-10.22-10.85-15.4-.92-1.35-1.79-2.88-2.09-4.44-.63-3.22,2.08-6.92,6.79-5.56,1.56.45,3.14,1.59,4.17,2.84,5.38,6.57,10.63,13.25,15.85,19.96,2.97,3.82,5.78,7.75,8.65,11.65.81,1.1,1.58,2.23,2.37,3.35-.56,0-1.11,0-1.78,0,.37.5.9,1,1.17,1.61,2.48,5.62,6.7,10.1,10.32,14.98,2.83,3.82,5.62,7.68,8.35,11.58,1.81,2.58,3.48,5.25,5.21,7.88,1.27,1.91,1.82,3.95,1.17,6.2-.99.93-1.99,1.87-2.98,2.8Z"/>
</svg>